# xmcd CD database file
#
# Track frame offsets:
#	150
#	11147
#	12760
#	38525
#	40842
#	78722
#	79737
#	83717
#	118185
#	161315
#	197270
#	217397
#	240115
#	274532
#
# Disc length: 4761 seconds
#
# Revision: 0
# Processed by: cddbd v1.5.2PL0 Copyright (c) Steve Scherf et al.
# Submitted via: CDex 1.51
#
DISCID=a312970e
DTITLE=Various Artist - The Complete Jazz At The Philharmonic Disc 10
DYEAR=1900
DGENRE=Jazz
TTITLE0=Ella Fitzgerald_A-Tisket,A-Tasket
TTITLE1=Norman Granz announcement
TTITLE2=JATP All-Stars_How High The Moon?
TTITLE3=Norman Granz announcement
TTITLE4=JATP All-Stars_Perdido
TTITLE5=Norman Granz announcement
TTITLE6=Announcements by Norman Granz and Gene Krupa
TTITLE7=The Gene Krupa Trio_Stompin' at the Savoy
TTITLE8=The Gene Krupa Trio_Body and Soul
TTITLE9=The Gene Krupa Trio_Dark Eyes
TTITLE10=JATP All-Stars_Chacterstically B.H.
TTITLE11=Charlie Shavers_Summertime
TTITLE12=Charlie Shavers_Sid Flips His Lips
TTITLE13=Charlie Shavers_Lover,Come Back to Me_A Ghost of Chance_Just You,Just Me
EXTD=
EXTT0=
EXTT1=
EXTT2=
EXTT3=
EXTT4=
EXTT5=
EXTT6=
EXTT7=
EXTT8=
EXTT9=
EXTT10=
EXTT11=
EXTT12=
EXTT13=
PLAYORDER=
